<?xml version="1.0" standalone="no"?>
<!DOCTYPE svg PUBLIC "-//W3C//DTD SVG 20010904//EN"
 "http://www.w3.org/TR/2001/REC-SVG-20010904/DTD/svg10.dtd">
<svg version="1.0" xmlns="http://www.w3.org/2000/svg"
 width="512.000000pt" height="512.000000pt" viewBox="0 0 512.000000 512.000000"
 preserveAspectRatio="xMidYMid meet">
<metadata>
Created by potrace 1.11, written by Peter Selinger 2001-2013
</metadata>
<g transform="translate(0.000000,512.000000) scale(0.100000,-0.100000)"
fill="#000000" stroke="none">
<path d="M1725 5074 c-39 -14 -83 -30 -100 -36 -66 -24 -295 -145 -385 -202
-423 -269 -747 -634 -964 -1081 -73 -149 -157 -381 -181 -498 -2 -10 -6 -26
-9 -35 -3 -9 -8 -33 -11 -52 -3 -19 -8 -42 -10 -50 -7 -23 -15 -82 -30 -197
-11 -95 -16 -188 -15 -308 1 -220 11 -309 66 -595 35 -177 165 -505 282 -710
141 -247 414 -565 627 -732 308 -241 642 -407 1003 -498 243 -61 280 -65 627
-65 341 0 371 2 555 41 103 22 238 60 340 95 240 84 501 227 710 388 119 92
131 103 256 226 259 257 448 543 585 887 44 110 48 132 22 124 -60 -18 -276
-75 -304 -80 -19 -3 -45 -8 -59 -11 -137 -28 -264 -39 -455 -39 -258 0 -339
10 -658 79 -47 10 -201 61 -282 92 -103 40 -338 153 -343 165 -2 4 -8 8 -13 8
-21 0 -236 144 -334 224 -101 83 -122 103 -225 206 -155 155 -259 287 -375
474 -67 110 -195 363 -195 388 0 8 -4 18 -9 24 -18 19 -113 336 -127 424 -2
14 -8 45 -13 70 -10 45 -15 83 -29 188 -9 76 -9 449 1 537 10 92 14 116 52
305 7 36 28 111 51 184 14 43 24 80 22 82 -2 1 -35 -8 -73 -22z"/>
</g>
</svg>
