<svg xmlns="http://www.w3.org/2000/svg" width="376.628" height="376.687" viewBox="0 0 376.628 376.687">
  <g id="clock" transform="translate(39.796 -43.025)">
    <g id="g8814" transform="translate(2.214 -1.408) rotate(0.547)">
      <path id="path2254" d="M-15.929,140.317l-2.643,4.84,35.943,18.972,2.642-4.84-35.943-18.972Z" fill="#fff" stroke="#fff" stroke-width="0.579" fill-rule="evenodd"/>
      <path id="path3228" d="M-6.962,126.02l-1.4,1.907,25.171,16,1.4-1.907-25.171-16Z" fill="#fff" fill-rule="evenodd"/>
      <path id="path3230" d="M4.84,110.02,3.4,111.9,26.391,130.8l1.441-1.885L4.84,110.02Z" fill="#fff" fill-rule="evenodd"/>
      <path id="path3232" d="M18.254,95.782l-1.682,1.643L37.7,118.784l1.682-1.643L18.254,95.782Z" fill="#fff" fill-rule="evenodd"/>
      <path id="path3234" d="M33.294,82.768l-1.8,1.39L50.05,107.675l1.881-1.441L33.294,82.768Z" fill="#fff" fill-rule="evenodd"/>
      <path id="path3236" d="M51.825,70.159,47.15,73.1l21.778,34.433,4.675-2.936L51.825,70.159Z" fill="#fff" stroke="#fff" stroke-width="0.579" fill-rule="evenodd"/>
      <path id="path3240" d="M66.858,62.043l-2.063,1.041L78.055,89.746,80.119,88.7,66.858,62.043Z" fill="#fff" fill-rule="evenodd"/>
      <path id="path3242" d="M84.951,54.23l-2.232.973L93.347,83.085l2.232-.973L84.951,54.23Z" fill="#fff" fill-rule="evenodd"/>
      <path id="path3244" d="M103.931,48.36l-2.413.661,7.19,29.195,2.413-.661-7.19-29.195Z" fill="#fff" fill-rule="evenodd"/>
      <path id="path3246" d="M123.433,44.958,121,45.344l4.431,29.746,2.381-.469-4.38-29.663Z" fill="#fff" fill-rule="evenodd"/>
      <path id="path3248" d="M146.027,43.41l-5.5.113,1.209,40.815,5.579-.165L146.027,43.41Z" fill="#fff" stroke="#fff" stroke-width="0.579" fill-rule="evenodd"/>
      <path id="path3250" d="M162.406,43.118l-1.983-.188-2.869,30.283,2.05.2,2.8-30.3Z" fill="#fff" fill-rule="evenodd"/>
      <path id="path3252" d="M182.209,46.393l-2.162-.571L174.031,75l2.162.571,6.016-29.179Z" fill="#fff" fill-rule="evenodd"/>
      <path id="path3254" d="M199.782,49.84l-8.749,29.026,2.044.849,8.765-29.093-2.06-.781Z" fill="#fff" fill-rule="evenodd"/>
      <path id="path3256" d="M218.087,56.41,206.674,84.092l1.915.93L220,57.34l-1.915-.93Z" fill="#fff" fill-rule="evenodd"/>
      <path id="path3258" d="M234.521,64.1,215.5,100.248l4.84,2.643,19.084-36.129L234.521,64.1Z" fill="#fff" stroke="#fff" stroke-width="0.579" fill-rule="evenodd"/>
      <path id="path3260" d="M252.861,74.715l-17.047,24.5L237.6,100.4l17.047-24.5-1.787-1.191Z" fill="#fff" fill-rule="evenodd"/>
      <path id="path3262" d="M268.5,86.316l-19.262,22.762,1.613,1.447,19.262-22.762L268.5,86.316Z" fill="#fff" fill-rule="evenodd"/>
      <path id="path3264" d="M282.912,99.758,261.194,120.3l1.472,1.683,21.718-20.545-1.472-1.683Z" fill="#fff" fill-rule="evenodd"/>
      <path id="path3266" d="M296.068,114.321,272.212,132.51l1.578,1.836,23.856-18.189-1.578-1.836Z" fill="#fff" fill-rule="evenodd"/>
      <path id="path3268" d="M307.734,131.229l-35.8,20.108,2.92,4.743,35.8-20.108-2.92-4.743Z" fill="#fff" stroke="#fff" stroke-width="0.579" fill-rule="evenodd"/>
      <path id="path3270" d="M317.3,147.494l-27.014,13.248,1.412,2.18,27-13.181-1.4-2.247Z" fill="#fff" fill-rule="evenodd"/>
      <path id="path3272" d="M325.3,166.192l-28.359,9.946.69,2.373,28.359-9.946Z" fill="#fff" fill-rule="evenodd"/>
      <path id="path3274" d="M330.861,184.526l-29.147,6.988.477,2.469,29.131-6.921-.461-2.536Z" fill="#fff" fill-rule="evenodd"/>
      <path id="path3276" d="M334.653,203.822l-29.417,3.941.33,2.249,29.4-3.874Z" fill="#fff" fill-rule="evenodd"/>
      <path id="path3278" d="M336.372,223.189l-40.72.526.181,5.512,40.637-.475Z" fill="#fff" stroke="#fff" stroke-width="0.579" fill-rule="evenodd"/>
      <path id="path3280" d="M336.478,243.033l-29.789-2.255-.121,2.3,29.722,2.239.188-2.282Z" fill="#fff" fill-rule="evenodd"/>
      <path id="path3282" d="M334.089,262.635l-29.256-5.4-.437,2.194,29.256,5.4Z" fill="#fff" fill-rule="evenodd"/>
      <path id="path3284" d="M301.163,273.27l-.62,2.25L329.348,284l.62-2.25-28.805-8.484Z" fill="#fff" fill-rule="evenodd"/>
      <path id="path3290" d="M295.982,289.083l-.974,2.066,27.711,10.993.958-2-27.7-11.061Z" fill="#fff" fill-rule="evenodd"/>
      <path id="path3292" d="M280.078,297.839l-2.659,4.907L312.845,323l2.642-4.84-35.41-20.323Z" fill="#fff" stroke="#fff" stroke-width="0.579" fill-rule="evenodd"/>
      <path id="path3294" d="M280.434,318.623l-1.377,1.914,24.976,16.522,1.377-1.914-24.976-16.522Z" fill="#fff" fill-rule="evenodd"/>
      <path id="path3296" d="M271.133,331.751l-1.3,1.548,22.631,19.515,1.3-1.548-22.631-19.515Z" fill="#fff" fill-rule="evenodd"/>
      <path id="path4267" d="M259.614,344.352l-1.639,1.283,20.644,21.6,1.571-1.3-20.577-21.583Z" fill="#fff" fill-rule="evenodd"/>
      <path id="path4269" d="M247.653,354.93l-1.625,1.23,18.087,23.69,1.625-1.23-18.087-23.69Z" fill="#fff" fill-rule="evenodd"/>
      <path id="path4271" d="M228.577,354.806l-4.727,2.853,19.766,36.07,4.743-2.92-19.781-36Z" fill="#fff" stroke="#fff" stroke-width="0.579" fill-rule="evenodd"/>
      <path id="path4273" d="M219.571,372.967l-2,.886L230.6,400.886l1.931-.9-12.964-27.017Z" fill="#fff" fill-rule="evenodd"/>
      <path id="path4275" d="M204.079,379.581l-2.034.679L212.257,408.4l2.05-.746-10.227-28.071Z" fill="#fff" fill-rule="evenodd"/>
      <path id="path4277" d="M188.6,384.635l-2.069.472,7.136,28.827,2.069-.472Z" fill="#fff" fill-rule="evenodd"/>
      <path id="path4279" d="M172.25,387.991l-2.5.27,4.143,29.465,2.52-.337Z" fill="#fff" fill-rule="evenodd"/>
      <path id="path4281" d="M154.951,378.438l-5.5.113.859,40.8,5.512-.181Z" fill="#fff" stroke="#fff" stroke-width="0.579" fill-rule="evenodd"/>
      <path id="path4283" d="M139.469,389.357l-2.087-.17-2.39,29.758,2.087.17Z" fill="#fff" fill-rule="evenodd"/>
      <path id="path4285" d="M122.588,387.473l-2.259-.58-5.091,29.47,2.259.58,5.091-29.47Z" fill="#fff" fill-rule="evenodd"/>
      <path id="path4287" d="M104.41,383.349l-8.25,28.719,2.25.62,8.25-28.719Z" fill="#fff" fill-rule="evenodd"/>
      <path id="path4289" d="M88.785,378.079,77.621,405.608l2.181.808,11.163-27.529-2.181-.808Z" fill="#fff" fill-rule="evenodd"/>
      <path id="path4291" d="M77.86,359.752l-20.253,36.2,4.856,2.575,20.252-36.2-4.856-2.575Z" fill="#fff" stroke="#fff" stroke-width="0.579" fill-rule="evenodd"/>
      <path id="path4293" d="M59.359,362.056,42.446,386.584l1.9,1.386,16.845-24.544-1.833-1.37Z" fill="#fff" fill-rule="evenodd"/>
      <path id="path4295" d="M46.592,352.13,27.176,374.642l1.535,1.726,19.416-22.512-1.535-1.726Z" fill="#fff" fill-rule="evenodd"/>
      <path id="path4297" d="M34.213,340.59l-21.3,20.858,1.717,1.843L35.914,342.5l-1.7-1.91Z" fill="#fff" fill-rule="evenodd"/>
      <path id="path4299" d="M23.481,328.091-.189,346.4l1.547,1.948,23.671-18.3-1.547-1.948Z" fill="#fff" fill-rule="evenodd"/>
      <path id="path4301" d="M21.861,305.714l-34.432,22.465,2.869,4.659,34.483-22.382-2.92-4.743Z" fill="#fff" stroke="#fff" stroke-width="0.579" fill-rule="evenodd"/>
      <path id="path4303" d="M6.074,300.368l-26.8,12.944,1.177,2.29,26.8-12.944-1.177-2.29Z" fill="#fff" fill-rule="evenodd"/>
      <path id="path4305" d="M-.539,284.592l-28.125,9.859,1.026,2.61L.487,287.2l-1.026-2.61Z" fill="#fff" fill-rule="evenodd"/>
      <path id="path4307" d="M-5.091,269.091l-28.846,6.918.523,2.633,28.846-6.918-.523-2.633Z" fill="#fff" fill-rule="evenodd"/>
      <path id="path4309" d="M-8.4,252.253l-29.349,3.957.388,2.885,29.349-3.957-.388-2.885Z" fill="#fff" fill-rule="evenodd"/>
      <path id="path4311" d="M1.326,233.38l-40.752.656.113,5.5,40.752-.655-.113-5.5Z" fill="#fff" stroke="#fff" stroke-width="0.579" fill-rule="evenodd"/>
      <path id="path4313" d="M-9.149,219.9l-29.777-2.607-.191,2.61,29.709,2.591.258-2.594Z" fill="#fff" fill-rule="evenodd"/>
      <path id="path4315" d="M-7.191,203.319l-29.31-5.763-.412,2.628,29.31,5.763.412-2.628Z" fill="#fff" fill-rule="evenodd"/>
      <path id="path4317" d="M-31.744,178.448l-.847,2.665,28.668,8.167.914-2.649-28.735-8.183Z" fill="#fff" fill-rule="evenodd"/>
      <path id="path4319" d="M-25.219,159.689l-1.084,2.75L1.325,173.483,2.393,170.8l-27.612-11.112Z" fill="#fff" fill-rule="evenodd"/>
    </g>
  </g>
</svg>
