<svg xmlns="http://www.w3.org/2000/svg" xmlns:xlink="http://www.w3.org/1999/xlink" width="162" height="162" viewBox="0 0 162 162"><defs><radialGradient id="a" cx="0.5" cy="0.5" r="0.5" gradientUnits="objectBoundingBox"><stop offset="0" stop-color="#fff"/><stop offset="1" stop-color="#ebebeb"/></radialGradient></defs><g transform="translate(-674 -489)"><circle cx="81" cy="81" r="81" transform="translate(674 489)" fill="url(#a)"/><g transform="translate(702.479 511.608)"><path d="M86.3,163.649a3.262,3.262,0,0,0-3.974.13A35.179,35.179,0,0,1,32.821,114.27a3.262,3.262,0,0,0-3.676-5.122,45.2,45.2,0,1,0,48.012,74.213,44.819,44.819,0,0,0,10.3-15.905A3.262,3.262,0,0,0,86.3,163.649Z" transform="translate(0.001 -85.243)" fill="#333"/><path d="M162.9,148.869a16.131,16.131,0,0,1,11.91,11.91,3.262,3.262,0,0,0,6.192,0,16.131,16.131,0,0,1,11.91-11.91,3.262,3.262,0,0,0,0-6.192A16.131,16.131,0,0,1,181,130.767a3.262,3.262,0,0,0-6.192,0,16.131,16.131,0,0,1-11.91,11.91,3.262,3.262,0,0,0,0,6.192Z" transform="translate(-125.723 -100.577)" fill="#333"/><path d="M291.436,20.336a17.817,17.817,0,0,1,7.633,4.277,17.812,17.812,0,0,1,4.277,7.633,3.262,3.262,0,0,0,6.192,0,17.815,17.815,0,0,1,4.277-7.633,17.815,17.815,0,0,1,7.633-4.277,3.262,3.262,0,0,0,0-6.192,17.816,17.816,0,0,1-7.633-4.277,17.812,17.812,0,0,1-4.277-7.633,3.262,3.262,0,0,0-6.192,0,17.814,17.814,0,0,1-4.277,7.633,17.815,17.815,0,0,1-7.633,4.277,3.263,3.263,0,0,0,0,6.192Z" transform="translate(-226.301 0)" fill="#333"/><path d="M385.714,190.878a16.13,16.13,0,0,1-11.91-11.91,3.262,3.262,0,0,0-6.192,0,16.131,16.131,0,0,1-11.91,11.91,3.262,3.262,0,0,0,0,6.192,16.131,16.131,0,0,1,11.91,11.91,3.262,3.262,0,0,0,6.192,0,16.131,16.131,0,0,1,11.91-11.91,3.262,3.262,0,0,0,0-6.192Z" transform="translate(-276.589 -138.295)" fill="#333"/></g></g></svg>