<svg xmlns="http://www.w3.org/2000/svg" xmlns:xlink="http://www.w3.org/1999/xlink" width="162" height="162" viewBox="0 0 162 162"><defs><radialGradient id="a" cx="0.5" cy="0.5" r="0.5" gradientUnits="objectBoundingBox"><stop offset="0" stop-color="#fff"/><stop offset="1" stop-color="#ececec"/></radialGradient></defs><g transform="translate(-856 -489)"><circle cx="81" cy="81" r="81" transform="translate(856 489)" fill="url(#a)"/><g transform="translate(880.153 513)"><g transform="translate(0 53.265)"><path d="M11.148,239.3H3.716a3.716,3.716,0,0,0,0,7.432h7.432a3.716,3.716,0,0,0,0-7.432Z" transform="translate(0 -239.304)" fill="#333"/></g><g transform="translate(99.098 53.265)"><path d="M456.365,239.3h-7.432a3.716,3.716,0,0,0,0,7.432h7.432a3.716,3.716,0,0,0,0-7.432Z" transform="translate(-445.217 -239.304)" fill="#333"/></g><g transform="translate(53.265 99.098)"><path d="M243.02,445.217a3.716,3.716,0,0,0-3.716,3.716v7.432a3.716,3.716,0,1,0,7.432,0v-7.432A3.717,3.717,0,0,0,243.02,445.217Z" transform="translate(-239.304 -445.217)" fill="#333"/></g><g transform="translate(53.265)"><path d="M243.02,0A3.716,3.716,0,0,0,239.3,3.716v7.432a3.716,3.716,0,0,0,7.432,0V3.716A3.716,3.716,0,0,0,243.02,0Z" transform="translate(-239.304)" fill="#333"/></g><g transform="translate(76.181 92.957)"><path d="M352.91,425.922l-3.716-6.436a3.716,3.716,0,0,0-6.436,3.716l3.716,6.436a3.716,3.716,0,0,0,6.436-3.716Z" transform="translate(-342.259 -417.627)" fill="#333"/></g><g transform="translate(26.632 7.136)"><path d="M130.3,40.353l-3.716-6.436a3.716,3.716,0,1,0-6.436,3.716l3.716,6.436a3.716,3.716,0,0,0,6.436-3.716Z" transform="translate(-119.65 -32.058)" fill="#333"/></g><g transform="translate(92.957 76.181)"><path d="M429.64,346.472l-6.436-3.716a3.716,3.716,0,0,0-3.716,6.436l6.436,3.716a3.716,3.716,0,0,0,3.716-6.436Z" transform="translate(-417.629 -342.258)" fill="#333"/></g><g transform="translate(7.136 26.632)"><path d="M44.071,123.864l-6.436-3.716a3.716,3.716,0,1,0-3.716,6.436l6.436,3.716a3.716,3.716,0,0,0,3.716-6.436Z" transform="translate(-32.06 -119.649)" fill="#333"/></g><g transform="translate(92.957 26.632)"><path d="M431,121.508a3.716,3.716,0,0,0-5.076-1.36l-6.436,3.716A3.716,3.716,0,0,0,423.2,130.3l6.436-3.716A3.716,3.716,0,0,0,431,121.508Z" transform="translate(-417.629 -119.649)" fill="#333"/></g><g transform="translate(7.136 76.181)"><path d="M45.43,344.117a3.716,3.716,0,0,0-5.076-1.36l-6.436,3.716a3.716,3.716,0,1,0,3.716,6.436l6.436-3.716A3.716,3.716,0,0,0,45.43,344.117Z" transform="translate(-32.059 -342.259)" fill="#333"/></g><g transform="translate(76.181 7.136)"><path d="M351.55,32.556a3.716,3.716,0,0,0-5.076,1.36l-3.716,6.436a3.716,3.716,0,1,0,6.436,3.716l3.716-6.436A3.716,3.716,0,0,0,351.55,32.556Z" transform="translate(-342.259 -32.058)" fill="#333"/></g><g transform="translate(26.632 92.957)"><path d="M128.941,418.126a3.716,3.716,0,0,0-5.076,1.36l-3.716,6.436a3.716,3.716,0,0,0,6.436,3.716L130.3,423.2A3.716,3.716,0,0,0,128.941,418.126Z" transform="translate(-119.65 -417.628)" fill="#333"/></g><g transform="translate(22.297 22.297)"><path d="M134.858,100.174a34.684,34.684,0,1,0,34.684,34.684A34.724,34.724,0,0,0,134.858,100.174Zm0,61.936a27.252,27.252,0,1,1,27.252-27.252A27.283,27.283,0,0,1,134.858,162.11Z" transform="translate(-100.174 -100.174)" fill="#333"/></g><g transform="translate(37.162 37.162)"><path d="M186.776,166.957a19.842,19.842,0,0,0-19.819,19.819,3.716,3.716,0,1,0,7.432,0,12.4,12.4,0,0,1,12.387-12.387,3.716,3.716,0,1,0,0-7.432Z" transform="translate(-166.957 -166.957)" fill="#333"/></g></g></g></svg>